<svg width="133" height="45" viewBox="0 0 133 45" fill="none" xmlns="http://www.w3.org/2000/svg">
<path d="M49.48 33.21C47.94 33.21 46.56 32.96 45.34 32.46C44.12 31.96 43.14 31.22 42.4 30.24C41.68 29.26 41.3 28.08 41.26 26.7H46.72C46.8 27.48 47.07 28.08 47.53 28.5C47.99 28.9 48.59 29.1 49.33 29.1C50.09 29.1 50.69 28.93 51.13 28.59C51.57 28.23 51.79 27.74 51.79 27.12C51.79 26.6 51.61 26.17 51.25 25.83C50.91 25.49 50.48 25.21 49.96 24.99C49.46 24.77 48.74 24.52 47.8 24.24C46.44 23.82 45.33 23.4 44.47 22.98C43.61 22.56 42.87 21.94 42.25 21.12C41.63 20.3 41.32 19.23 41.32 17.91C41.32 15.95 42.03 14.42 43.45 13.32C44.87 12.2 46.72 11.64 49 11.64C51.32 11.64 53.19 12.2 54.61 13.32C56.03 14.42 56.79 15.96 56.89 17.94H51.34C51.3 17.26 51.05 16.73 50.59 16.35C50.13 15.95 49.54 15.75 48.82 15.75C48.2 15.75 47.7 15.92 47.32 16.26C46.94 16.58 46.75 17.05 46.75 17.67C46.75 18.35 47.07 18.88 47.71 19.26C48.35 19.64 49.35 20.05 50.71 20.49C52.07 20.95 53.17 21.39 54.01 21.81C54.87 22.23 55.61 22.84 56.23 23.64C56.85 24.44 57.16 25.47 57.16 26.73C57.16 27.93 56.85 29.02 56.23 30C55.63 30.98 54.75 31.76 53.59 32.34C52.43 32.92 51.06 33.21 49.48 33.21ZM69.947 28.65V33H67.337C65.477 33 64.027 32.55 62.987 31.65C61.947 30.73 61.427 29.24 61.427 27.18V20.52H59.387V16.26H61.427V12.18H66.557V16.26H69.917V20.52H66.557V27.24C66.557 27.74 66.677 28.1 66.917 28.32C67.157 28.54 67.557 28.65 68.117 28.65H69.947ZM78.2345 19.05C78.8345 18.13 79.5845 17.41 80.4845 16.89C81.3845 16.35 82.3845 16.08 83.4845 16.08V21.51H82.0745C80.7945 21.51 79.8345 21.79 79.1945 22.35C78.5545 22.89 78.2345 23.85 78.2345 25.23V33H73.1045V16.26H78.2345V19.05ZM88.8166 14.52C87.9166 14.52 87.1766 14.26 86.5966 13.74C86.0366 13.2 85.7566 12.54 85.7566 11.76C85.7566 10.96 86.0366 10.3 86.5966 9.78C87.1766 9.24 87.9166 8.97 88.8166 8.97C89.6966 8.97 90.4166 9.24 90.9766 9.78C91.5566 10.3 91.8466 10.96 91.8466 11.76C91.8466 12.54 91.5566 13.2 90.9766 13.74C90.4166 14.26 89.6966 14.52 88.8166 14.52ZM91.3666 16.26V33H86.2366V16.26H91.3666ZM100.514 18.63C101.014 17.85 101.704 17.22 102.584 16.74C103.464 16.26 104.494 16.02 105.674 16.02C107.054 16.02 108.304 16.37 109.424 17.07C110.544 17.77 111.424 18.77 112.064 20.07C112.724 21.37 113.054 22.88 113.054 24.6C113.054 26.32 112.724 27.84 112.064 29.16C111.424 30.46 110.544 31.47 109.424 32.19C108.304 32.89 107.054 33.24 105.674 33.24C104.514 33.24 103.484 33 102.584 32.52C101.704 32.04 101.014 31.42 100.514 30.66V40.98H95.3842V16.26H100.514V18.63ZM107.834 24.6C107.834 23.32 107.474 22.32 106.754 21.6C106.054 20.86 105.184 20.49 104.144 20.49C103.124 20.49 102.254 20.86 101.534 21.6C100.834 22.34 100.484 23.35 100.484 24.63C100.484 25.91 100.834 26.92 101.534 27.66C102.254 28.4 103.124 28.77 104.144 28.77C105.164 28.77 106.034 28.4 106.754 27.66C107.474 26.9 107.834 25.88 107.834 24.6ZM131.826 24.36C131.826 24.84 131.796 25.34 131.736 25.86H120.126C120.206 26.9 120.536 27.7 121.116 28.26C121.716 28.8 122.446 29.07 123.306 29.07C124.586 29.07 125.476 28.53 125.976 27.45H131.436C131.156 28.55 130.646 29.54 129.906 30.42C129.186 31.3 128.276 31.99 127.176 32.49C126.076 32.99 124.846 33.24 123.486 33.24C121.846 33.24 120.386 32.89 119.106 32.19C117.826 31.49 116.826 30.49 116.106 29.19C115.386 27.89 115.026 26.37 115.026 24.63C115.026 22.89 115.376 21.37 116.076 20.07C116.796 18.77 117.796 17.77 119.076 17.07C120.356 16.37 121.826 16.02 123.486 16.02C125.106 16.02 126.546 16.36 127.806 17.04C129.066 17.72 130.046 18.69 130.746 19.95C131.466 21.21 131.826 22.68 131.826 24.36ZM126.576 23.01C126.576 22.13 126.276 21.43 125.676 20.91C125.076 20.39 124.326 20.13 123.426 20.13C122.566 20.13 121.836 20.38 121.236 20.88C120.656 21.38 120.296 22.09 120.156 23.01H126.576Z" fill="#1C1C1C"/>
<path d="M15 7.99999C15 7.4477 14.5517 6.99651 14.0006 7.03329C10.3874 7.27441 6.96996 8.81683 4.3934 11.3934C1.58035 14.2064 0 18.0217 0 22C0 25.9782 1.58035 29.7935 4.39339 32.6066C6.96996 35.1831 10.3873 36.7256 14.0006 36.9667C14.5517 37.0035 15 36.5523 15 36V25.874C13.2748 25.4299 12 23.8638 12 22C12 20.1362 13.2748 18.5701 15 18.126V7.99999Z" fill="#FF6525"/>
<path d="M18 25.874C19.7252 25.4299 21 23.8638 21 22C21 20.1362 19.7252 18.5701 18 18.126V12C18 11.4477 18.4491 10.9943 18.998 11.0549C21.2837 11.307 23.4324 12.4193 25.0711 14.2218C26.9464 16.2847 28 19.0826 28 22C28 24.9174 26.9464 27.7153 25.0711 29.7782C23.4324 31.5807 21.2837 32.693 18.998 32.9451C18.4491 33.0057 18 32.5523 18 32V25.874Z" fill="#FF6525"/>
</svg>
